<?xml version="1.0" encoding="utf-8"?>
<!-- Generator: Adobe Illustrator 23.0.1, SVG Export Plug-In . SVG Version: 6.00 Build 0)  -->
<svg version="1.1" id="Layer_1" xmlns="http://www.w3.org/2000/svg" xmlns:xlink="http://www.w3.org/1999/xlink" x="0px" y="0px"
	 viewBox="0 0 90.2 97.3" style="enable-background:new 0 0 90.2 97.3;" xml:space="preserve">
<style type="text/css">
	.st0{fill:#999999;stroke:#999999;stroke-width:0.25;stroke-miterlimit:10;}
	.st1{fill:#F68D1E;stroke:#F68D1E;stroke-width:0.25;stroke-miterlimit:10;}
</style>
<g>
	<g>
		<path class="st0" d="M84.5,44.2h-1c0-22.5-18.3-40.7-40.7-40.7C20.3,3.5,2,21.8,2,44.2H1c0-23,18.7-41.7,41.7-41.7
			S84.5,21.2,84.5,44.2z"/>
	</g>
	<g>
		<path class="st0" d="M42.8,91.3C19.7,91.3,1,72.5,1,49.5h1C2,72,20.3,90.3,42.8,90.3V91.3z"/>
	</g>
</g>
<path class="st0" d="M42.8,19.8c14.9,0,27,12.1,27,27s-12.1,27-27,27s-27-12.1-27-27S27.8,19.8,42.8,19.8 M42.8,18.8
	c-15.5,0-28,12.6-28,28s12.6,28,28,28s28-12.6,28-28S58.2,18.8,42.8,18.8L42.8,18.8z"/>
<g>
	<path class="st0" d="M41.4,64.7c-9.2-0.7-16.5-8.4-16.5-17.8c0-7,4-13,9.9-16v-1.1c-6.4,3-10.9,9.5-10.9,17.1
		c0,10,7.7,18.1,17.5,18.8V64.7z"/>
	<path class="st0" d="M42.8,28c-0.6,0-1.2,0-1.8,0.1v1c0.6-0.1,1.2-0.1,1.8-0.1c9.9,0,17.9,8,17.9,17.9c0,8.1-5.5,15-13,17.2v1
		c8-2.2,14-9.5,14-18.2C61.6,36.5,53.2,28,42.8,28z"/>
</g>
<path class="st1" d="M42.8,12.3c19,0,34.5,15.5,34.5,34.5S61.8,81.4,42.8,81.4S8.2,65.9,8.2,46.9S23.7,12.3,42.8,12.3 M42.8,11.3
	c-19.6,0-35.5,15.9-35.5,35.5s15.9,35.5,35.5,35.5s35.5-15.9,35.5-35.5S62.4,11.3,42.8,11.3L42.8,11.3z"/>
<g>
	<path class="st1" d="M35.4,46.1c1,0,1.8,0.8,1.8,1.8v4.6h-3.6v-4.6C33.6,46.9,34.4,46.1,35.4,46.1 M35.4,45.1
		c-1.5,0-2.8,1.3-2.8,2.8v5.6h5.6v-5.6C38.2,46.3,36.9,45.1,35.4,45.1L35.4,45.1z"/>
	<path class="st1" d="M42.8,42.7c1,0,1.8,0.8,1.8,1.8v8h-3.6v-8C40.9,43.5,41.8,42.7,42.8,42.7 M42.8,41.7c-1.5,0-2.8,1.3-2.8,2.8v9
		h5.6v-9C45.6,43,44.3,41.7,42.8,41.7L42.8,41.7z"/>
	<path class="st1" d="M50.1,38.4c1,0,1.8,0.8,1.8,1.8v12.3h-3.6V40.3C48.3,39.3,49.1,38.4,50.1,38.4 M50.1,37.4
		c-1.5,0-2.8,1.3-2.8,2.8v13.3h5.6V40.3C52.9,38.7,51.7,37.4,50.1,37.4L50.1,37.4z"/>
</g>
<path class="st1" d="M79.9,63.2c1,0,2,0.3,2.9,0.9l4.5,3.2c0,0,0,0,0,0l-11.2,16l-4.5-3.2c-2.3-1.6-2.8-4.7-1.2-7l5.5-7.8
	C76.7,64,78.3,63.2,79.9,63.2 M79.9,62.2c-1.9,0-3.8,0.9-4.9,2.5l-5.5,7.8c-1.9,2.7-1.2,6.5,1.5,8.4l5.4,3.8l11.8-16.8
	c0.2-0.3,0.4-0.5,0.7-0.8l-5.4-3.8C82.3,62.6,81.1,62.2,79.9,62.2L79.9,62.2z"/>
</svg>
