<?xml version="1.0" encoding="utf-8"?>
<!-- Generator: Adobe Illustrator 23.0.1, SVG Export Plug-In . SVG Version: 6.00 Build 0)  -->
<svg version="1.1" id="Layer_1" xmlns="http://www.w3.org/2000/svg" xmlns:xlink="http://www.w3.org/1999/xlink" x="0px" y="0px"
	 viewBox="0 0 90.2 97.3" style="enable-background:new 0 0 90.2 97.3;" xml:space="preserve">
<style type="text/css">
	.st0{fill:#999999;stroke:#999999;stroke-width:0.25;stroke-miterlimit:10;}
	.st1{fill:#F68D1E;stroke:#F68D1E;stroke-width:0.25;stroke-miterlimit:10;}
</style>
<g>
	<g>
		<path class="st0" d="M86.3,44.3h-1C85.3,21.9,67,3.6,44.6,3.6C22.1,3.6,3.8,21.9,3.8,44.3h-1c0-23,18.7-41.7,41.7-41.7
			S86.3,21.3,86.3,44.3z"/>
	</g>
	<g>
		<path class="st0" d="M44.6,92.1c-23,0-41.7-18.7-41.7-41.7h1c0,22.5,18.3,40.7,40.7,40.7c22.5,0,40.7-18.3,40.7-40.7h1
			C86.3,73.4,67.6,92.1,44.6,92.1z"/>
	</g>
	<path class="st0" d="M44.6,19.9c14.9,0,27,12.1,27,27s-12.1,27-27,27s-27-12.1-27-27S29.7,19.9,44.6,19.9 M44.6,18.9
		c-15.5,0-28,12.6-28,28s12.6,28,28,28s28-12.6,28-28S60.1,18.9,44.6,18.9L44.6,18.9z"/>
	<g>
		<path class="st0" d="M43.3,64.8c-9.2-0.7-16.5-8.4-16.5-17.8c0-7,4-13,9.9-16v-1.1c-6.4,3-10.9,9.5-10.9,17.1
			c0,10,7.7,18.1,17.5,18.8V64.8z"/>
		<path class="st0" d="M44.6,28.1c-0.6,0-1.2,0-1.8,0.1v1c0.6-0.1,1.2-0.1,1.8-0.1c9.9,0,17.9,8,17.9,17.9c0,8.1-5.5,15-13,17.2v1
			c8-2.2,14-9.5,14-18.2C63.5,36.5,55,28.1,44.6,28.1z"/>
	</g>
	<path class="st1" d="M44.6,12.4c19,0,34.5,15.5,34.5,34.5S63.6,81.5,44.6,81.5S10,66,10,46.9S25.5,12.4,44.6,12.4 M44.6,11.4
		C25,11.4,9,27.3,9,46.9S25,82.5,44.6,82.5s35.5-15.9,35.5-35.5S64.2,11.4,44.6,11.4L44.6,11.4z"/>
	<path class="st1" d="M54,51.1c-0.1,0.4-0.4,0.7-0.7,1.1c0,0,0,0,0,0c0,1.6-3.7,3.4-8.6,3.4c-4.6,0-8-1.5-8.5-3
		c-0.4-0.3-0.7-0.7-0.9-1.1c-0.1,0.2-0.1,0.5-0.1,0.7c0,2.4,4.3,4.4,9.6,4.4c5.3,0,9.6-2,9.6-4.4C54.3,51.8,54.2,51.5,54,51.1z"/>
	<path class="st1" d="M53.3,45c-0.2,0.2-0.5,0.4-0.8,0.6c0.5,0.4,0.8,0.9,0.8,1.3c0,1.6-3.7,3.4-8.6,3.4c-4.9,0-8.6-1.8-8.6-3.4
		c0-0.4,0.2-0.8,0.7-1.2c-0.3-0.2-0.6-0.4-0.8-0.6c-0.6,0.6-0.9,1.2-0.9,1.8c0,2.4,4.3,4.4,9.6,4.4c5.3,0,9.6-2,9.6-4.4
		C54.3,46.2,53.9,45.6,53.3,45z"/>
	<path class="st1" d="M44.7,38.3c4.9,0,8.6,1.8,8.6,3.4s-3.7,3.4-8.6,3.4s-8.6-1.8-8.6-3.4S39.8,38.3,44.7,38.3 M44.7,37.3
		c-5.3,0-9.6,2-9.6,4.4c0,2.4,4.3,4.4,9.6,4.4s9.6-2,9.6-4.4C54.3,39.3,50,37.3,44.7,37.3L44.7,37.3z"/>
</g>
</svg>
