<?xml version="1.0" encoding="utf-8"?>
<!-- Generator: Adobe Illustrator 23.1.0, SVG Export Plug-In . SVG Version: 6.00 Build 0)  -->
<svg version="1.1" id="Layer_1" xmlns="http://www.w3.org/2000/svg" xmlns:xlink="http://www.w3.org/1999/xlink" x="0px" y="0px"
	 viewBox="0 0 214.8 132.2" style="enable-background:new 0 0 214.8 132.2;" xml:space="preserve">
<style type="text/css">
	.st0{fill:#EDEDED;}
</style>
<g>
	<path class="st0" d="M23.7,6.7h5.2v36.1h17.3v4.4H23.7V6.7z"/>
	<path class="st0" d="M84.2,26.5c0,13.9-8.5,21.3-18.8,21.3c-10.7,0-18.2-8.3-18.2-20.5c0-12.8,8-21.2,18.8-21.2
		C77.1,6,84.2,14.5,84.2,26.5z M52.9,27.1c0,8.6,4.7,16.4,12.9,16.4c8.3,0,13-7.6,13-16.8c0-8-4.2-16.4-12.9-16.4
		C57.2,10.3,52.9,18.3,52.9,27.1z"/>
	<path class="st0" d="M91,7.2c2.6-0.5,6.4-0.8,10-0.8c5.6,0,9.2,1,11.7,3.3c2,1.8,3.2,4.6,3.2,7.7c0,5.3-3.4,8.9-7.6,10.3v0.2
		c3.1,1.1,5,4,5.9,8.2c1.3,5.6,2.3,9.5,3.1,11.1H112c-0.7-1.1-1.6-4.6-2.7-9.7c-1.2-5.6-3.4-7.7-8.1-7.9h-4.9v17.5H91V7.2z
		 M96.2,25.6h5.3c5.6,0,9.1-3.1,9.1-7.7c0-5.2-3.8-7.5-9.3-7.6c-2.5,0-4.3,0.2-5.2,0.5V25.6z"/>
	<path class="st0" d="M144.2,28.2h-15.7v14.6H146v4.4h-22.7V6.7h21.8v4.4h-16.6v12.8h15.7V28.2z"/>
	<path class="st0" d="M186.9,29.4c-0.3-5.6-0.7-12.4-0.6-17.5h-0.2c-1.4,4.7-3.1,9.8-5.1,15.4l-7.1,19.6h-4l-6.5-19.3
		c-1.9-5.7-3.5-10.9-4.7-15.7h-0.1c-0.1,5-0.4,11.8-0.8,17.9l-1.1,17.3h-5l2.8-40.4h6.7l6.9,19.6c1.7,5,3.1,9.4,4.1,13.6h0.2
		c1-4.1,2.5-8.5,4.3-13.6l7.2-19.6h6.7l2.5,40.4h-5.1L186.9,29.4z"/>
	<path class="st0" d="M27.8,69v45.2H22V69H27.8z"/>
	<path class="st0" d="M38,69.5c2.8-0.5,6.5-0.9,11.2-0.9c5.8,0,10,1.3,12.7,3.8c2.5,2.1,4,5.4,4,9.4c0,4.1-1.2,7.3-3.5,9.6
		c-3.1,3.3-8.1,5-13.8,5c-1.7,0-3.4-0.1-4.7-0.4v18.1H38V69.5z M43.8,91.3c1.3,0.3,2.9,0.5,4.8,0.5c7,0,11.3-3.4,11.3-9.6
		c0-6-4.2-8.8-10.7-8.8c-2.5,0-4.5,0.2-5.5,0.5V91.3z"/>
	<path class="st0" d="M72.8,107c2.6,1.6,6.4,2.9,10.5,2.9c6,0,9.4-3.1,9.4-7.7c0-4.2-2.4-6.6-8.5-9c-7.4-2.6-11.9-6.4-11.9-12.8
		c0-7,5.8-12.3,14.6-12.3c4.6,0,8,1.1,10,2.2l-1.6,4.8c-1.5-0.8-4.5-2.1-8.6-2.1c-6.2,0-8.5,3.7-8.5,6.8c0,4.2,2.7,6.3,9,8.7
		c7.6,2.9,11.5,6.6,11.5,13.3c0,7-5.2,13-15.8,13c-4.4,0-9.1-1.3-11.5-2.9L72.8,107z"/>
	<path class="st0" d="M112.5,69v26.7c0,10.1,4.5,14.4,10.5,14.4c6.7,0,11-4.4,11-14.4V69h5.9v26.3c0,13.9-7.3,19.6-17.1,19.6
		c-9.2,0-16.2-5.3-16.2-19.3V69H112.5z"/>
	<path class="st0" d="M188.1,94.3c-0.3-6.3-0.7-13.9-0.7-19.5h-0.2c-1.5,5.3-3.4,10.9-5.7,17.2l-8,21.9h-4.4l-7.3-21.5
		c-2.1-6.4-4-12.2-5.2-17.6h-0.1c-0.1,5.6-0.5,13.2-0.9,20l-1.2,19.4h-5.6l3.1-45.2h7.4l7.7,21.8c1.9,5.6,3.4,10.5,4.6,15.2h0.2
		c1.1-4.6,2.7-9.5,4.8-15.2l8-21.8h7.4l2.8,45.2h-5.7L188.1,94.3z"/>
</g>
</svg>
