<?xml version="1.0" encoding="utf-8"?>
<!-- Generator: Adobe Illustrator 23.0.1, SVG Export Plug-In . SVG Version: 6.00 Build 0)  -->
<svg version="1.1" id="Layer_1" xmlns="http://www.w3.org/2000/svg" xmlns:xlink="http://www.w3.org/1999/xlink" x="0px" y="0px"
	 viewBox="0 0 101.1 101.7" style="enable-background:new 0 0 101.1 101.7;" xml:space="preserve">
<style type="text/css">
	.st0{fill:#999999;stroke:#999999;stroke-width:0.25;stroke-miterlimit:10;}
	.st1{fill:#F68D1E;stroke:#F68D1E;stroke-width:0.25;stroke-miterlimit:10;}
	.st2{fill:#F68D1E;}
</style>
<g>
	<g>
		<g>
			<path class="st0" d="M96,47.9h-1C95,23.4,75,3.4,50.5,3.4C26.5,3.4,6.5,22.9,6,46.8l-1,0c0.3-11.9,5.1-23.1,13.7-31.4
				c8.6-8.4,19.8-13,31.8-13C75.6,2.4,96,22.8,96,47.9z"/>
		</g>
		<g>
			<g>
				<polygon class="st0" points="9.8,43.7 9.1,43 5.5,46.4 2.4,42.7 1.6,43.3 5.5,47.9 				"/>
			</g>
		</g>
	</g>
	<g>
		<g>
			<path class="st0" d="M50.5,99.1C25.4,99.1,5,78.7,5,53.6h1c0,24.5,20,44.5,44.5,44.5c24,0,43.9-19.5,44.5-43.4l1,0
				c-0.3,11.9-5.1,23.1-13.7,31.4C73.7,94.5,62.4,99.1,50.5,99.1z"/>
		</g>
		<g>
			<g>
				<polygon class="st0" points="91.2,57.8 91.9,58.5 95.4,55.1 98.6,58.9 99.3,58.2 95.5,53.6 				"/>
			</g>
		</g>
	</g>
</g>
<g>
	<path class="st1" d="M50.5,15.4c19.5,0,35.3,15.9,35.3,35.3S69.9,86.1,50.5,86.1S15.1,70.3,15.1,50.8S31,15.4,50.5,15.4 M50.5,14.4
		c-20.1,0-36.3,16.3-36.3,36.3s16.3,36.3,36.3,36.3s36.3-16.3,36.3-36.3S70.5,14.4,50.5,14.4L50.5,14.4z"/>
</g>
<g>
	<path class="st0" d="M48.7,74.2C36.6,73.3,27,63.1,27,50.8c0-9.2,5.3-17.2,13.1-21v-1.1C31.8,32.5,26,41,26,50.8
		c0,12.9,10,23.5,22.7,24.4V74.2z"/>
	<path class="st0" d="M50.5,26.3c-0.8,0-1.5,0-2.3,0.1v1c0.7-0.1,1.5-0.1,2.3-0.1c12.9,0,23.5,10.5,23.5,23.5
		c0,10.7-7.2,19.8-17.1,22.6v1c10.4-2.8,18.1-12.3,18.1-23.6C74.9,37.3,64,26.3,50.5,26.3z"/>
</g>
<path class="st2" d="M57.6,38.7l6.6,6.1L50.4,62.2L36.7,44.8l6.6-6.1H57.6 M58,37.7H42.9l-7.5,7l15.1,19.1l15.1-19.1L58,37.7
	L58,37.7z"/>
<g>
	<g>
		<path class="st2" d="M50.4,64.2c-0.2,0-0.4-0.1-0.5-0.4l-7.3-25.1c-0.1-0.3,0.1-0.5,0.3-0.6c0.3-0.1,0.5,0.1,0.6,0.3l7.3,25.1
			c0.1,0.3-0.1,0.5-0.3,0.6C50.5,64.2,50.5,64.2,50.4,64.2z"/>
	</g>
	<g>
		<path class="st2" d="M50.5,64.2c0,0-0.1,0-0.1,0c-0.3-0.1-0.4-0.4-0.3-0.6l7.4-25.5c0.1-0.3,0.4-0.4,0.6-0.3
			c0.3,0.1,0.4,0.4,0.3,0.6L51,63.8C50.9,64,50.7,64.2,50.5,64.2z"/>
	</g>
</g>
<g>
	<path class="st2" d="M36.5,45.2c-0.3,0-0.5-0.2-0.5-0.5c0-0.3,0.2-0.5,0.5-0.5l27.7,0c0,0,0,0,0,0c0.3,0,0.5,0.2,0.5,0.5
		c0,0.3-0.2,0.5-0.5,0.5L36.5,45.2C36.5,45.2,36.5,45.2,36.5,45.2z"/>
</g>
<g>
	<path class="st2" d="M50.5,63.6c-0.3,0-0.5-0.2-0.5-0.5l-0.1-24.8c0-0.3,0.2-0.5,0.5-0.5c0,0,0,0,0,0c0.3,0,0.5,0.2,0.5,0.5
		L51,63.1C51,63.3,50.7,63.6,50.5,63.6C50.5,63.6,50.5,63.6,50.5,63.6z"/>
</g>
<g>
	<path class="st2" d="M50.3,64c-0.2,0-0.4-0.1-0.4-0.3L39,42.1c-0.1-0.2,0-0.5,0.2-0.7c0.2-0.1,0.5,0,0.7,0.2l10.8,21.6
		c0.1,0.2,0,0.5-0.2,0.7C50.4,64,50.4,64,50.3,64z"/>
</g>
<g>
	<path class="st2" d="M50.5,64c-0.1,0-0.2,0-0.2-0.1c-0.2-0.1-0.3-0.4-0.2-0.7l11.2-21.1c0.1-0.2,0.4-0.3,0.7-0.2
		c0.2,0.1,0.3,0.4,0.2,0.7L51,63.8C50.9,63.9,50.7,64,50.5,64z"/>
</g>
<g>
	<path class="st2" d="M61.2,62.9L61.2,62.9c0.5,0,1-0.4,1-1v-3.5c0-0.5-0.5-1-1-1l0,0c-0.5,0-1,0.5-1,1v3.5
		C60.2,62.4,60.7,62.9,61.2,62.9z"/>
	<path class="st2" d="M64,60.1L64,60.1c0-0.6-0.5-1-1-1h-3.5c-0.5,0-1,0.5-1,1v0c0,0.5,0.5,1,1,1H63C63.5,61.1,64,60.7,64,60.1z"/>
</g>
<g>
	<path class="st2" d="M37.7,37.7L37.7,37.7c0.3,0,0.5-0.2,0.5-0.5v-1.9c0-0.3-0.2-0.5-0.5-0.5l0,0c-0.3,0-0.5,0.2-0.5,0.5v1.9
		C37.2,37.4,37.4,37.7,37.7,37.7z"/>
	<path class="st2" d="M39.2,36.2L39.2,36.2c0-0.3-0.2-0.5-0.5-0.5h-1.9c-0.3,0-0.5,0.2-0.5,0.5l0,0c0,0.3,0.2,0.5,0.5,0.5h1.9
		C38.9,36.8,39.2,36.5,39.2,36.2z"/>
</g>
</svg>
