<?xml version="1.0" encoding="utf-8"?>
<!-- Generator: Adobe Illustrator 23.0.1, SVG Export Plug-In . SVG Version: 6.00 Build 0)  -->
<svg version="1.1" id="Layer_1" xmlns="http://www.w3.org/2000/svg" xmlns:xlink="http://www.w3.org/1999/xlink" x="0px" y="0px"
	 viewBox="0 0 101.1 101.7" style="enable-background:new 0 0 101.1 101.7;" xml:space="preserve">
<style type="text/css">
	.st0{fill:#999999;stroke:#999999;stroke-width:0.25;stroke-miterlimit:10;}
	.st1{fill:#F68D1E;stroke:#F68D1E;stroke-width:0.25;stroke-miterlimit:10;}
</style>
<g>
	<g>
		<g>
			<path class="st0" d="M96.5,48h-1c0-24.5-20-44.5-44.5-44.5C27,3.5,7.1,23,6.5,46.9l-1,0C5.8,35,10.7,23.8,19.2,15.5
				C27.7,7.1,39,2.5,51,2.5C76.1,2.5,96.5,22.9,96.5,48z"/>
		</g>
		<g>
			<g>
				<polygon class="st0" points="10.3,43.8 9.6,43.1 6.1,46.5 2.9,42.8 2.1,43.4 6,48 				"/>
			</g>
		</g>
	</g>
	<g>
		<g>
			<path class="st0" d="M51,99.3c-25.1,0-45.5-20.4-45.5-45.5h1c0,24.5,20,44.5,44.5,44.5c24,0,43.9-19.5,44.5-43.4l1,0
				c-0.3,11.9-5.1,23.1-13.7,31.4C74.3,94.6,63,99.3,51,99.3z"/>
		</g>
		<g>
			<g>
				<polygon class="st0" points="91.7,57.9 92.4,58.7 95.9,55.2 99.1,59 99.9,58.3 96,53.7 				"/>
			</g>
		</g>
	</g>
</g>
<path class="st1" d="M57.6,18.3c0.4,0,0.7,0.3,0.7,0.7v3.3c0,0.4,0.3,0.8,0.7,1c2,0.6,4,1.4,5.8,2.4c0.2,0.1,0.3,0.1,0.5,0.1
	c0.3,0,0.5-0.1,0.7-0.3l2.3-2.3c0.1-0.1,0.3-0.2,0.5-0.2c0.2,0,0.4,0.1,0.5,0.2l9.4,9.4c0.1,0.1,0.2,0.3,0.2,0.5s-0.1,0.4-0.2,0.5
	l-2.3,2.3c-0.3,0.3-0.4,0.8-0.2,1.2c1,1.9,1.8,3.8,2.4,5.8c0.1,0.4,0.5,0.7,1,0.7h3.3c0.4,0,0.7,0.3,0.7,0.7v13.2
	c0,0.4-0.3,0.7-0.7,0.7h-3.3c-0.4,0-0.8,0.3-1,0.7c-0.6,2-1.4,4-2.4,5.8c-0.2,0.4-0.1,0.9,0.2,1.2l2.3,2.3c0.1,0.1,0.2,0.3,0.2,0.5
	s-0.1,0.4-0.2,0.5l-9.4,9.4c-0.1,0.1-0.3,0.2-0.5,0.2s-0.4-0.1-0.5-0.2l-2.3-2.3c-0.2-0.2-0.4-0.3-0.7-0.3c-0.2,0-0.3,0-0.5,0.1
	c-1.9,1-3.8,1.8-5.8,2.4c-0.4,0.1-0.7,0.5-0.7,1v3.3c0,0.4-0.3,0.7-0.7,0.7H44.4c-0.4,0-0.7-0.3-0.7-0.7v-3.3c0-0.4-0.3-0.8-0.7-1
	c-2-0.6-4-1.4-5.8-2.4C37,76,36.8,76,36.6,76c-0.3,0-0.5,0.1-0.7,0.3l-2.3,2.3c-0.1,0.1-0.3,0.2-0.5,0.2s-0.4-0.1-0.5-0.2l-9.4-9.4
	c-0.1-0.1-0.2-0.3-0.2-0.5s0.1-0.4,0.2-0.5l2.3-2.3c0.3-0.3,0.4-0.8,0.2-1.2c-1-1.9-1.8-3.8-2.4-5.8c-0.1-0.4-0.5-0.7-1-0.7h-3.3
	c-0.4,0-0.7-0.3-0.7-0.7V44.3c0-0.4,0.3-0.7,0.7-0.7h3.3c0.4,0,0.8-0.3,1-0.7c0.6-2,1.4-4,2.4-5.8c0.2-0.4,0.1-0.9-0.2-1.2l-2.3-2.3
	c-0.1-0.1-0.2-0.3-0.2-0.5s0.1-0.4,0.2-0.5l9.4-9.4c0.1-0.1,0.3-0.2,0.5-0.2c0.2,0,0.4,0.1,0.5,0.2l2.3,2.3c0.2,0.2,0.4,0.3,0.7,0.3
	c0.2,0,0.3,0,0.5-0.1c1.9-1,3.8-1.8,5.8-2.4c0.4-0.1,0.7-0.5,0.7-1V19c0-0.4,0.3-0.7,0.7-0.7H57.6 M57.6,17.3H44.4
	c-0.9,0-1.7,0.8-1.7,1.7v3.3c-2.1,0.6-4.1,1.5-6,2.5l-2.3-2.3C34,22.1,33.6,22,33.1,22s-0.9,0.2-1.2,0.5l-9.4,9.4
	c-0.7,0.7-0.7,1.7,0,2.4l2.3,2.3c-1,1.9-1.9,3.9-2.5,6h-3.3c-0.9,0-1.7,0.8-1.7,1.7v13.2c0,0.9,0.8,1.7,1.7,1.7h3.3
	c0.6,2.1,1.5,4.1,2.5,6l-2.3,2.3c-0.7,0.7-0.7,1.7,0,2.4l9.4,9.4c0.3,0.3,0.8,0.5,1.2,0.5s0.9-0.2,1.2-0.5l2.3-2.3
	c1.9,1,3.9,1.9,6,2.5v3.3c0,0.9,0.8,1.7,1.7,1.7h13.2c0.9,0,1.7-0.8,1.7-1.7v-3.3c2.1-0.6,4.1-1.5,6-2.5l2.3,2.3
	c0.3,0.3,0.8,0.5,1.2,0.5s0.9-0.2,1.2-0.5l9.4-9.4c0.7-0.7,0.7-1.7,0-2.4l-2.3-2.3c1-1.9,1.9-3.9,2.5-6h3.3c0.9,0,1.7-0.8,1.7-1.7
	V44.3c0-0.9-0.8-1.7-1.7-1.7h-3.3c-0.6-2.1-1.5-4.1-2.5-6l2.3-2.3c0.7-0.7,0.7-1.7,0-2.4l-9.4-9.4c-0.3-0.3-0.8-0.5-1.2-0.5
	s-0.9,0.2-1.2,0.5l-2.3,2.3c-1.9-1-3.9-1.9-6-2.5V19C59.3,18.1,58.6,17.3,57.6,17.3L57.6,17.3z"/>
<path class="st0" d="M51,31.5c10.7,0,19.4,8.7,19.4,19.4S61.7,70.3,51,70.3s-19.4-8.7-19.4-19.4S40.3,31.5,51,31.5 M51,30.5
	c-11.3,0-20.4,9.1-20.4,20.4S39.7,71.3,51,71.3s20.4-9.1,20.4-20.4S62.3,30.5,51,30.5L51,30.5z"/>
<g>
	<g>
		<path class="st1" d="M60.3,51.8c-0.3,0-0.5-0.2-0.5-0.5v-0.8c0-0.3,0.2-0.5,0.5-0.5s0.5,0.2,0.5,0.5v0.8
			C60.8,51.5,60.6,51.8,60.3,51.8z"/>
	</g>
	<g>
		<g>
			<path class="st1" d="M54,46.1c-0.1,0.2-0.1,0.5,0.2,0.7l6.5,4.1L54.2,55c-0.2,0.1-0.3,0.5-0.2,0.7s0.5,0.3,0.7,0.2l7.1-4.5
				C62,51.2,62,51,62,50.9s-0.1-0.3-0.2-0.4l-7.1-4.5c-0.1-0.1-0.2-0.1-0.3-0.1C54.3,45.8,54.1,45.9,54,46.1z"/>
		</g>
	</g>
</g>
<g>
	<g>
		<path class="st1" d="M41.7,50c0.3,0,0.5,0.2,0.5,0.5v0.8c0,0.3-0.2,0.5-0.5,0.5s-0.5-0.2-0.5-0.5v-0.8C41.2,50.2,41.4,50,41.7,50z
			"/>
	</g>
	<g>
		<g>
			<path class="st1" d="M48,55.7c0.1-0.2,0.1-0.5-0.2-0.7l-6.5-4.1l6.5-4.1c0.2-0.1,0.3-0.5,0.2-0.7s-0.5-0.3-0.7-0.2l-7.1,4.5
				C40,50.5,40,50.7,40,50.9s0.1,0.3,0.2,0.4l7.1,4.5c0.1,0.1,0.2,0.1,0.3,0.1C47.7,55.9,47.9,55.8,48,55.7z"/>
		</g>
	</g>
</g>
<g>
	<line class="st1" x1="52" y1="44" x2="50" y2="58.6"/>
	<path class="st1" d="M50,59.1C50,59.1,49.9,59.1,50,59.1c-0.3,0-0.5-0.3-0.5-0.6l2.1-14.6c0-0.3,0.3-0.5,0.6-0.4
		c0.3,0,0.5,0.3,0.4,0.6l-2.1,14.6C50.4,58.9,50.2,59.1,50,59.1z"/>
</g>
<g>
	<path class="st0" d="M48.4,64.7c-6.5-1.2-11.5-7-11.5-13.9c0-4.9,2.5-9.2,6.3-11.7V38c-4.3,2.7-7.3,7.4-7.3,12.9
		c0,7.5,5.4,13.6,12.5,14.9V64.7z"/>
	<path class="st0" d="M51,35.8c-1,0-2,0.1-3,0.3v1c1-0.2,1.9-0.3,3-0.3c7.8,0,14.1,6.3,14.1,14.1c0,7-5.1,12.8-11.8,13.9v1
		c7.3-1.1,12.8-7.4,12.8-14.9C66.1,42.5,59.4,35.8,51,35.8z"/>
</g>
</svg>
